<?xml version="1.0" ?><svg id="Layer_1" style="enable-background:new 0 0 24 24;" version="1.1" viewBox="0 0 24 24" xml:space="preserve" xmlns="http://www.w3.org/2000/svg" xmlns:xlink="http://www.w3.org/1999/xlink"><style type="text/css">
	.st0{fill:#5F6B89;}
	.st1{fill:#EF7F5E;}
	.st2{fill:#E5F0F9;}
	.st3{fill:#FF5F5F;}
	.st4{fill:#9076FF;}
	.st5{fill:#527BFF;}
	.st6{fill:#5CF2CA;}
	.st7{fill:#5BDEF4;}
	.st8{fill:#7AED8C;}
	.st9{fill:#5CC7F2;}
	.st10{fill:#F2C65A;}
	.st11{fill:url(#SVGID_1_);}
	.st12{fill:url(#SVGID_2_);}
	.st13{fill:url(#SVGID_3_);}
	.st14{fill:#F45D9A;}
	.st15{opacity:0.35;fill:#37415E;}
	.st16{fill:#37415E;}
</style><path class="st2" d="M21.65,3.5c0.08,0.06,0.11,0.17,0.09,0.27l-3.48,16.58c-0.02,0.09-0.08,0.17-0.17,0.2  c-0.09,0.03-0.18,0.02-0.26-0.03l-5.28-3.78c-0.01,0-0.01-0.01-0.01-0.01l-2.88-2.06l7.58-6.78c0.1-0.08,0.11-0.23,0.04-0.33  c-0.07-0.11-0.22-0.14-0.33-0.08L6.72,13.13l-4.3-1.74c-0.16-0.06-0.17-0.21-0.17-0.26c0-0.04,0.01-0.19,0.18-0.25l18.94-7.43  C21.47,3.41,21.57,3.43,21.65,3.5z"/><path class="st2" d="M15.27,8.99l-6.18,5.52c-0.05,0.05-0.08,0.11-0.08,0.18v0.02v4.22l-1.97-5.41L15.27,8.99z"/><path class="st2" d="M11.97,16.94l-2.42,2.29c-0.02,0.01-0.03,0.02-0.04,0.02v-4.07L11.97,16.94z"/><path class="st15" d="M15.27,8.99l-6.18,5.52c-0.05,0.05-0.08,0.11-0.08,0.18v0.02v4.22l-1.97-5.41L15.27,8.99z"/><path class="st16" d="M2.24,11.86l4.3,1.74l2.08,5.7c0.07,0.2,0.23,0.36,0.42,0.44c0.04,0.02,0.08,0.01,0.12,0.03  c0.03,0.01,0.06,0.04,0.1,0.04c0.02,0,0.02-0.01,0.04-0.02c0.02,0.01,0.04,0.02,0.06,0.02c0.19,0,0.38-0.07,0.53-0.21l2.49-2.37  l5.16,3.69c0.13,0.1,0.29,0.15,0.45,0.15c0.1,0,0.19-0.02,0.28-0.05c0.25-0.1,0.43-0.31,0.48-0.57l3.48-16.58  c0.06-0.28-0.04-0.57-0.26-0.75c-0.21-0.19-0.51-0.24-0.78-0.13L2.24,10.41c-0.29,0.12-0.49,0.4-0.49,0.72S1.94,11.74,2.24,11.86z   M9.09,14.51c-0.05,0.05-0.08,0.11-0.08,0.18v0.02v4.22l-1.97-5.41l8.23-4.53L9.09,14.51z M9.55,19.23  c-0.02,0.01-0.03,0.02-0.04,0.02v-4.07l2.46,1.76L9.55,19.23z M2.43,10.88l18.94-7.43c0.1-0.04,0.2-0.02,0.28,0.05  c0.08,0.06,0.11,0.17,0.09,0.27l-3.48,16.58c-0.02,0.09-0.08,0.17-0.17,0.2c-0.09,0.03-0.18,0.02-0.26-0.03l-5.28-3.78  c-0.01,0-0.01-0.01-0.01-0.01l-2.88-2.06l7.58-6.78c0.1-0.08,0.11-0.23,0.04-0.33c-0.07-0.11-0.22-0.14-0.33-0.08L6.72,13.13  l-4.3-1.74c-0.16-0.06-0.17-0.21-0.17-0.26C2.25,11.09,2.26,10.94,2.43,10.88z"/></svg>